<svg width="34" height="20" viewBox="0 0 34 20" fill="none" xmlns="http://www.w3.org/2000/svg">
<path d="M0.5 17.5955V5.54331C0.5 5.25082 0.754441 5.02125 1.04602 5.04427C12.712 5.96527 18.7627 4.81615 27.9756 0.261197C28.2502 0.125429 28.585 0.262753 28.6793 0.554217L33.8385 16.5008C33.9264 16.7725 33.765 17.0638 33.4891 17.1376C20.9987 20.4793 13.7116 20.7833 0.899632 18.0848C0.668796 18.0361 0.5 17.8314 0.5 17.5955Z" fill="#DC434E"/>
<path d="M11.1733 11.6676V12.5142H8.55398V11.6676H11.1733ZM14.2663 15.0795C13.8875 15.0795 13.5485 15.0085 13.2493 14.8665C12.95 14.7225 12.7124 14.5256 12.5362 14.2756C12.362 14.0256 12.2692 13.7396 12.2578 13.4176H13.2805C13.2995 13.6562 13.4027 13.8513 13.5902 14.0028C13.7777 14.1525 14.0031 14.2273 14.2663 14.2273C14.4728 14.2273 14.6565 14.1799 14.8175 14.0852C14.9785 13.9905 15.1054 13.8589 15.1982 13.6903C15.291 13.5218 15.3364 13.3295 15.3345 13.1136C15.3364 12.8939 15.29 12.6989 15.1953 12.5284C15.1006 12.358 14.9709 12.2244 14.8061 12.1278C14.6413 12.0294 14.4519 11.9801 14.2379 11.9801C14.0637 11.9782 13.8923 12.0104 13.7237 12.0767C13.5552 12.143 13.4216 12.2301 13.3232 12.3381L12.3714 12.1818L12.6754 9.18182H16.0504V10.0625H13.5476L13.38 11.6051H13.4141C13.522 11.4782 13.6745 11.3731 13.8714 11.2898C14.0684 11.2045 14.2843 11.1619 14.5192 11.1619C14.8714 11.1619 15.1858 11.2453 15.4624 11.4119C15.7389 11.5767 15.9567 11.804 16.1158 12.0938C16.2749 12.3835 16.3544 12.715 16.3544 13.0881C16.3544 13.4725 16.2654 13.8153 16.0874 14.1165C15.9112 14.4157 15.666 14.6515 15.3516 14.8239C15.0391 14.9943 14.6773 15.0795 14.2663 15.0795ZM22.4013 13.9091V13.6023C22.4013 13.3769 22.4486 13.1695 22.5433 12.9801C22.6399 12.7907 22.7801 12.6383 22.9638 12.5227C23.1475 12.4072 23.37 12.3494 23.6314 12.3494C23.9003 12.3494 24.1257 12.4072 24.3075 12.5227C24.4893 12.6364 24.6267 12.7879 24.7195 12.9773C24.8142 13.1667 24.8615 13.375 24.8615 13.6023V13.9091C24.8615 14.1345 24.8142 14.3419 24.7195 14.5312C24.6248 14.7206 24.4856 14.8731 24.3018 14.9886C24.12 15.1042 23.8965 15.1619 23.6314 15.1619C23.3662 15.1619 23.1418 15.1042 22.9581 14.9886C22.7744 14.8731 22.6352 14.7206 22.5405 14.5312C22.4477 14.3419 22.4013 14.1345 22.4013 13.9091ZM23.1428 13.6023V13.9091C23.1428 14.0587 23.1787 14.196 23.2507 14.321C23.3227 14.446 23.4496 14.5085 23.6314 14.5085C23.8151 14.5085 23.9411 14.447 24.0092 14.3239C24.0793 14.1989 24.1143 14.0606 24.1143 13.9091V13.6023C24.1143 13.4508 24.0812 13.3125 24.0149 13.1875C23.9486 13.0606 23.8208 12.9972 23.6314 12.9972C23.4534 12.9972 23.3274 13.0606 23.2536 13.1875C23.1797 13.3125 23.1428 13.4508 23.1428 13.6023ZM19.4439 10.5795V10.2727C19.4439 10.0455 19.4922 9.83712 19.5888 9.64773C19.6854 9.45833 19.8255 9.30682 20.0092 9.19318C20.1929 9.07765 20.4155 9.01989 20.6768 9.01989C20.9439 9.01989 21.1683 9.07765 21.3501 9.19318C21.5339 9.30682 21.6721 9.45833 21.7649 9.64773C21.8577 9.83712 21.9041 10.0455 21.9041 10.2727V10.5795C21.9041 10.8068 21.8568 11.0152 21.7621 11.2045C21.6693 11.392 21.531 11.5426 21.3473 11.6562C21.1636 11.7699 20.9401 11.8267 20.6768 11.8267C20.4098 11.8267 20.1844 11.7699 20.0007 11.6562C19.8189 11.5426 19.6806 11.3911 19.5859 11.2017C19.4912 11.0123 19.4439 10.8049 19.4439 10.5795ZM20.1911 10.2727V10.5795C20.1911 10.7311 20.2261 10.8693 20.2962 10.9943C20.3681 11.1174 20.495 11.179 20.6768 11.179C20.8587 11.179 20.9837 11.1174 21.0518 10.9943C21.1219 10.8693 21.157 10.7311 21.157 10.5795V10.2727C21.157 10.1212 21.1238 9.98295 21.0575 9.85795C20.9912 9.73106 20.8643 9.66761 20.6768 9.66761C20.4969 9.66761 20.371 9.73106 20.299 9.85795C20.227 9.98485 20.1911 10.1231 20.1911 10.2727ZM19.7678 15L23.7678 9.18182H24.478L20.478 15H19.7678Z" fill="white"/>
</svg>
